<mxfile host="app.diagrams.net" modified="2023-12-06T07:40:37.254Z" agent="Mozilla/5.0 (Macintosh; Intel Mac OS X 10_15_7) AppleWebKit/537.36 (KHTML, like Gecko) Chrome/119.0.0.0 Safari/537.36" etag="MAec8g3l-CHXmAn42L4p" version="22.1.5" type="device">
  <diagram name="Page-1" id="0DFRcew3-hTUfaSDMJ8z">
    <mxGraphModel dx="2622" dy="1517" grid="1" gridSize="10" guides="1" tooltips="1" connect="1" arrows="1" fold="1" page="1" pageScale="1" pageWidth="1920" pageHeight="1200" math="0" shadow="0">
      <root>
        <mxCell id="0" />
        <mxCell id="1" parent="0" />
        <mxCell id="9tO-GS4h1mKYMsfafJvD-3" value="" style="rounded=0;whiteSpace=wrap;html=1;" parent="1" vertex="1">
          <mxGeometry x="530" y="60" width="1070" height="50" as="geometry" />
        </mxCell>
        <mxCell id="9tO-GS4h1mKYMsfafJvD-19" value="&lt;font style=&quot;font-size: 20px;&quot;&gt;Program&lt;/font&gt;" style="text;html=1;strokeColor=none;fillColor=none;align=center;verticalAlign=middle;whiteSpace=wrap;rounded=0;" parent="1" vertex="1">
          <mxGeometry x="1010" width="110" height="60" as="geometry" />
        </mxCell>
        <mxCell id="9tO-GS4h1mKYMsfafJvD-64" value="plugin 1" style="rounded=0;whiteSpace=wrap;html=1;" parent="1" vertex="1">
          <mxGeometry x="180" y="160" width="80" height="30" as="geometry" />
        </mxCell>
        <mxCell id="9tO-GS4h1mKYMsfafJvD-65" value="plugin 2" style="rounded=0;whiteSpace=wrap;html=1;" parent="1" vertex="1">
          <mxGeometry x="180" y="210" width="80" height="30" as="geometry" />
        </mxCell>
        <mxCell id="9tO-GS4h1mKYMsfafJvD-66" value="plugin 3" style="rounded=0;whiteSpace=wrap;html=1;" parent="1" vertex="1">
          <mxGeometry x="180" y="260" width="80" height="30" as="geometry" />
        </mxCell>
        <mxCell id="9tO-GS4h1mKYMsfafJvD-67" value="plugin 4" style="rounded=0;whiteSpace=wrap;html=1;" parent="1" vertex="1">
          <mxGeometry x="180" y="310" width="80" height="30" as="geometry" />
        </mxCell>
        <mxCell id="9tO-GS4h1mKYMsfafJvD-68" value="plugin 5" style="rounded=0;whiteSpace=wrap;html=1;" parent="1" vertex="1">
          <mxGeometry x="180" y="360" width="80" height="30" as="geometry" />
        </mxCell>
        <mxCell id="9tO-GS4h1mKYMsfafJvD-69" value="plugin 6" style="rounded=0;whiteSpace=wrap;html=1;" parent="1" vertex="1">
          <mxGeometry x="180" y="410" width="80" height="30" as="geometry" />
        </mxCell>
        <mxCell id="9tO-GS4h1mKYMsfafJvD-70" value="plugin 7" style="rounded=0;whiteSpace=wrap;html=1;" parent="1" vertex="1">
          <mxGeometry x="180" y="460" width="80" height="30" as="geometry" />
        </mxCell>
        <mxCell id="9tO-GS4h1mKYMsfafJvD-71" value="plugin 8" style="rounded=0;whiteSpace=wrap;html=1;" parent="1" vertex="1">
          <mxGeometry x="180" y="510" width="80" height="30" as="geometry" />
        </mxCell>
        <mxCell id="9tO-GS4h1mKYMsfafJvD-72" value="plugin 9" style="rounded=0;whiteSpace=wrap;html=1;" parent="1" vertex="1">
          <mxGeometry x="180" y="560" width="80" height="30" as="geometry" />
        </mxCell>
        <mxCell id="9tO-GS4h1mKYMsfafJvD-73" value="plugin 10" style="rounded=0;whiteSpace=wrap;html=1;" parent="1" vertex="1">
          <mxGeometry x="180" y="610" width="80" height="30" as="geometry" />
        </mxCell>
        <mxCell id="9tO-GS4h1mKYMsfafJvD-74" value="plugin 11" style="rounded=0;whiteSpace=wrap;html=1;" parent="1" vertex="1">
          <mxGeometry x="180" y="660" width="80" height="30" as="geometry" />
        </mxCell>
        <mxCell id="9tO-GS4h1mKYMsfafJvD-75" value="plugin 12" style="rounded=0;whiteSpace=wrap;html=1;" parent="1" vertex="1">
          <mxGeometry x="180" y="710" width="80" height="30" as="geometry" />
        </mxCell>
        <mxCell id="9tO-GS4h1mKYMsfafJvD-76" value="plugin 13" style="rounded=0;whiteSpace=wrap;html=1;" parent="1" vertex="1">
          <mxGeometry x="180" y="760" width="80" height="30" as="geometry" />
        </mxCell>
        <mxCell id="9tO-GS4h1mKYMsfafJvD-77" value="plugin 14" style="rounded=0;whiteSpace=wrap;html=1;" parent="1" vertex="1">
          <mxGeometry x="180" y="810" width="80" height="30" as="geometry" />
        </mxCell>
        <mxCell id="9tO-GS4h1mKYMsfafJvD-78" value="plugin 15" style="rounded=0;whiteSpace=wrap;html=1;" parent="1" vertex="1">
          <mxGeometry x="180" y="860" width="80" height="30" as="geometry" />
        </mxCell>
        <mxCell id="9tO-GS4h1mKYMsfafJvD-79" value="3" style="rounded=0;whiteSpace=wrap;html=1;" parent="1" vertex="1">
          <mxGeometry x="260" y="160" width="80" height="30" as="geometry" />
        </mxCell>
        <mxCell id="9tO-GS4h1mKYMsfafJvD-80" value="3" style="rounded=0;whiteSpace=wrap;html=1;" parent="1" vertex="1">
          <mxGeometry x="260" y="210" width="80" height="30" as="geometry" />
        </mxCell>
        <mxCell id="9tO-GS4h1mKYMsfafJvD-81" value="3" style="rounded=0;whiteSpace=wrap;html=1;" parent="1" vertex="1">
          <mxGeometry x="260" y="260" width="80" height="30" as="geometry" />
        </mxCell>
        <mxCell id="9tO-GS4h1mKYMsfafJvD-82" value="2" style="rounded=0;whiteSpace=wrap;html=1;" parent="1" vertex="1">
          <mxGeometry x="260" y="310" width="80" height="30" as="geometry" />
        </mxCell>
        <mxCell id="9tO-GS4h1mKYMsfafJvD-83" value="5" style="rounded=0;whiteSpace=wrap;html=1;" parent="1" vertex="1">
          <mxGeometry x="260" y="360" width="80" height="30" as="geometry" />
        </mxCell>
        <mxCell id="9tO-GS4h1mKYMsfafJvD-84" value="3" style="rounded=0;whiteSpace=wrap;html=1;" parent="1" vertex="1">
          <mxGeometry x="260" y="410" width="80" height="30" as="geometry" />
        </mxCell>
        <mxCell id="9tO-GS4h1mKYMsfafJvD-85" value="3" style="rounded=0;whiteSpace=wrap;html=1;" parent="1" vertex="1">
          <mxGeometry x="260" y="460" width="80" height="30" as="geometry" />
        </mxCell>
        <mxCell id="9tO-GS4h1mKYMsfafJvD-86" value="1" style="rounded=0;whiteSpace=wrap;html=1;" parent="1" vertex="1">
          <mxGeometry x="260" y="510" width="80" height="30" as="geometry" />
        </mxCell>
        <mxCell id="9tO-GS4h1mKYMsfafJvD-87" value="1" style="rounded=0;whiteSpace=wrap;html=1;" parent="1" vertex="1">
          <mxGeometry x="260" y="560" width="80" height="30" as="geometry" />
        </mxCell>
        <mxCell id="9tO-GS4h1mKYMsfafJvD-88" value="4" style="rounded=0;whiteSpace=wrap;html=1;" parent="1" vertex="1">
          <mxGeometry x="260" y="610" width="80" height="30" as="geometry" />
        </mxCell>
        <mxCell id="9tO-GS4h1mKYMsfafJvD-89" value="6" style="rounded=0;whiteSpace=wrap;html=1;" parent="1" vertex="1">
          <mxGeometry x="260" y="660" width="80" height="30" as="geometry" />
        </mxCell>
        <mxCell id="9tO-GS4h1mKYMsfafJvD-90" value="1" style="rounded=0;whiteSpace=wrap;html=1;" parent="1" vertex="1">
          <mxGeometry x="260" y="710" width="80" height="30" as="geometry" />
        </mxCell>
        <mxCell id="9tO-GS4h1mKYMsfafJvD-91" value="3" style="rounded=0;whiteSpace=wrap;html=1;" parent="1" vertex="1">
          <mxGeometry x="260" y="760" width="80" height="30" as="geometry" />
        </mxCell>
        <mxCell id="9tO-GS4h1mKYMsfafJvD-92" value="2" style="rounded=0;whiteSpace=wrap;html=1;" parent="1" vertex="1">
          <mxGeometry x="260" y="810" width="80" height="30" as="geometry" />
        </mxCell>
        <mxCell id="9tO-GS4h1mKYMsfafJvD-93" value="4" style="rounded=0;whiteSpace=wrap;html=1;" parent="1" vertex="1">
          <mxGeometry x="260" y="860" width="80" height="30" as="geometry" />
        </mxCell>
        <mxCell id="9tO-GS4h1mKYMsfafJvD-94" value="NO" style="rounded=0;whiteSpace=wrap;html=1;" parent="1" vertex="1">
          <mxGeometry x="340" y="160" width="130" height="30" as="geometry" />
        </mxCell>
        <mxCell id="9tO-GS4h1mKYMsfafJvD-95" value="NO" style="rounded=0;whiteSpace=wrap;html=1;" parent="1" vertex="1">
          <mxGeometry x="340" y="210" width="130" height="30" as="geometry" />
        </mxCell>
        <mxCell id="9tO-GS4h1mKYMsfafJvD-96" value="VOTING_NEEDED" style="rounded=0;whiteSpace=wrap;html=1;" parent="1" vertex="1">
          <mxGeometry x="340" y="260" width="130" height="30" as="geometry" />
        </mxCell>
        <mxCell id="9tO-GS4h1mKYMsfafJvD-97" value="YES" style="rounded=0;whiteSpace=wrap;html=1;" parent="1" vertex="1">
          <mxGeometry x="340" y="310" width="130" height="30" as="geometry" />
        </mxCell>
        <mxCell id="9tO-GS4h1mKYMsfafJvD-98" value="VOTING_NEEDED" style="rounded=0;whiteSpace=wrap;html=1;" parent="1" vertex="1">
          <mxGeometry x="340" y="360" width="130" height="30" as="geometry" />
        </mxCell>
        <mxCell id="9tO-GS4h1mKYMsfafJvD-99" value="NO" style="rounded=0;whiteSpace=wrap;html=1;" parent="1" vertex="1">
          <mxGeometry x="340" y="410" width="130" height="30" as="geometry" />
        </mxCell>
        <mxCell id="9tO-GS4h1mKYMsfafJvD-100" value="NO" style="rounded=0;whiteSpace=wrap;html=1;" parent="1" vertex="1">
          <mxGeometry x="340" y="460" width="130" height="30" as="geometry" />
        </mxCell>
        <mxCell id="9tO-GS4h1mKYMsfafJvD-101" value="YES" style="rounded=0;whiteSpace=wrap;html=1;" parent="1" vertex="1">
          <mxGeometry x="340" y="510" width="130" height="30" as="geometry" />
        </mxCell>
        <mxCell id="9tO-GS4h1mKYMsfafJvD-102" value="NO" style="rounded=0;whiteSpace=wrap;html=1;" parent="1" vertex="1">
          <mxGeometry x="340" y="560" width="130" height="30" as="geometry" />
        </mxCell>
        <mxCell id="9tO-GS4h1mKYMsfafJvD-103" value="YES" style="rounded=0;whiteSpace=wrap;html=1;" parent="1" vertex="1">
          <mxGeometry x="340" y="610" width="130" height="30" as="geometry" />
        </mxCell>
        <mxCell id="9tO-GS4h1mKYMsfafJvD-104" value="NO" style="rounded=0;whiteSpace=wrap;html=1;" parent="1" vertex="1">
          <mxGeometry x="340" y="660" width="130" height="30" as="geometry" />
        </mxCell>
        <mxCell id="9tO-GS4h1mKYMsfafJvD-105" value="YES" style="rounded=0;whiteSpace=wrap;html=1;" parent="1" vertex="1">
          <mxGeometry x="340" y="710" width="130" height="30" as="geometry" />
        </mxCell>
        <mxCell id="9tO-GS4h1mKYMsfafJvD-106" value="NO" style="rounded=0;whiteSpace=wrap;html=1;" parent="1" vertex="1">
          <mxGeometry x="340" y="760" width="130" height="30" as="geometry" />
        </mxCell>
        <mxCell id="9tO-GS4h1mKYMsfafJvD-107" value="YES" style="rounded=0;whiteSpace=wrap;html=1;" parent="1" vertex="1">
          <mxGeometry x="340" y="810" width="130" height="30" as="geometry" />
        </mxCell>
        <mxCell id="9tO-GS4h1mKYMsfafJvD-109" value="" style="group" parent="1" vertex="1" connectable="0">
          <mxGeometry x="550" y="70" width="190" height="30" as="geometry" />
        </mxCell>
        <mxCell id="9tO-GS4h1mKYMsfafJvD-5" value="opcode 1" style="rounded=0;whiteSpace=wrap;html=1;" parent="9tO-GS4h1mKYMsfafJvD-109" vertex="1">
          <mxGeometry width="70" height="30" as="geometry" />
        </mxCell>
        <mxCell id="9tO-GS4h1mKYMsfafJvD-7" value="parameter struct 1" style="rounded=0;whiteSpace=wrap;html=1;" parent="9tO-GS4h1mKYMsfafJvD-109" vertex="1">
          <mxGeometry x="70" width="120" height="30" as="geometry" />
        </mxCell>
        <mxCell id="9tO-GS4h1mKYMsfafJvD-110" value="" style="group" parent="1" vertex="1" connectable="0">
          <mxGeometry x="760" y="70" width="190" height="30" as="geometry" />
        </mxCell>
        <mxCell id="9tO-GS4h1mKYMsfafJvD-8" value="opcode 2" style="rounded=0;whiteSpace=wrap;html=1;" parent="9tO-GS4h1mKYMsfafJvD-110" vertex="1">
          <mxGeometry width="70" height="30" as="geometry" />
        </mxCell>
        <mxCell id="9tO-GS4h1mKYMsfafJvD-10" value="parameter struct 2" style="rounded=0;whiteSpace=wrap;html=1;" parent="9tO-GS4h1mKYMsfafJvD-110" vertex="1">
          <mxGeometry x="70" width="120" height="30" as="geometry" />
        </mxCell>
        <mxCell id="9tO-GS4h1mKYMsfafJvD-111" value="" style="group" parent="1" vertex="1" connectable="0">
          <mxGeometry x="970" y="70" width="190" height="30" as="geometry" />
        </mxCell>
        <mxCell id="9tO-GS4h1mKYMsfafJvD-11" value="opcode 3" style="rounded=0;whiteSpace=wrap;html=1;" parent="9tO-GS4h1mKYMsfafJvD-111" vertex="1">
          <mxGeometry width="70" height="30" as="geometry" />
        </mxCell>
        <mxCell id="9tO-GS4h1mKYMsfafJvD-13" value="parameter struct 3" style="rounded=0;whiteSpace=wrap;html=1;" parent="9tO-GS4h1mKYMsfafJvD-111" vertex="1">
          <mxGeometry x="70" width="120" height="30" as="geometry" />
        </mxCell>
        <mxCell id="9tO-GS4h1mKYMsfafJvD-112" value="" style="group" parent="1" vertex="1" connectable="0">
          <mxGeometry x="1180" y="70" width="190" height="30" as="geometry" />
        </mxCell>
        <mxCell id="9tO-GS4h1mKYMsfafJvD-14" value="opcode 4" style="rounded=0;whiteSpace=wrap;html=1;" parent="9tO-GS4h1mKYMsfafJvD-112" vertex="1">
          <mxGeometry width="70" height="30" as="geometry" />
        </mxCell>
        <mxCell id="9tO-GS4h1mKYMsfafJvD-15" value="parameter struct 4" style="rounded=0;whiteSpace=wrap;html=1;" parent="9tO-GS4h1mKYMsfafJvD-112" vertex="1">
          <mxGeometry x="70" width="120" height="30" as="geometry" />
        </mxCell>
        <mxCell id="9tO-GS4h1mKYMsfafJvD-113" value="" style="group" parent="1" vertex="1" connectable="0">
          <mxGeometry x="1390" y="70" width="190" height="30" as="geometry" />
        </mxCell>
        <mxCell id="9tO-GS4h1mKYMsfafJvD-16" value="opcode 5" style="rounded=0;whiteSpace=wrap;html=1;" parent="9tO-GS4h1mKYMsfafJvD-113" vertex="1">
          <mxGeometry width="70" height="30" as="geometry" />
        </mxCell>
        <mxCell id="9tO-GS4h1mKYMsfafJvD-18" value="parameter struct 5" style="rounded=0;whiteSpace=wrap;html=1;" parent="9tO-GS4h1mKYMsfafJvD-113" vertex="1">
          <mxGeometry x="70" width="120" height="30" as="geometry" />
        </mxCell>
        <mxCell id="9tO-GS4h1mKYMsfafJvD-114" value="Plugin Index" style="text;html=1;strokeColor=none;fillColor=none;align=center;verticalAlign=middle;whiteSpace=wrap;rounded=0;" parent="1" vertex="1">
          <mxGeometry x="180" y="120" width="80" height="30" as="geometry" />
        </mxCell>
        <mxCell id="9tO-GS4h1mKYMsfafJvD-115" value="Level" style="text;html=1;strokeColor=none;fillColor=none;align=center;verticalAlign=middle;whiteSpace=wrap;rounded=0;" parent="1" vertex="1">
          <mxGeometry x="270" y="120" width="60" height="30" as="geometry" />
        </mxCell>
        <mxCell id="9tO-GS4h1mKYMsfafJvD-116" value="Return Type" style="text;html=1;strokeColor=none;fillColor=none;align=center;verticalAlign=middle;whiteSpace=wrap;rounded=0;" parent="1" vertex="1">
          <mxGeometry x="357.5" y="120" width="95" height="30" as="geometry" />
        </mxCell>
        <mxCell id="9tO-GS4h1mKYMsfafJvD-119" value="YES" style="rounded=0;whiteSpace=wrap;html=1;" parent="1" vertex="1">
          <mxGeometry x="340" y="860" width="130" height="30" as="geometry" />
        </mxCell>
        <mxCell id="9tO-GS4h1mKYMsfafJvD-120" value="not triggered" style="rounded=0;whiteSpace=wrap;html=1;fillColor=#fff2cc;strokeColor=#d6b656;" parent="1" vertex="1">
          <mxGeometry x="585" y="210" width="120" height="30" as="geometry" />
        </mxCell>
        <mxCell id="9tO-GS4h1mKYMsfafJvD-122" value="not triggered" style="rounded=0;whiteSpace=wrap;html=1;fillColor=#fff2cc;strokeColor=#d6b656;" parent="1" vertex="1">
          <mxGeometry x="585" y="160" width="120" height="30" as="geometry" />
        </mxCell>
        <mxCell id="9tO-GS4h1mKYMsfafJvD-124" value="not triggered" style="rounded=0;whiteSpace=wrap;html=1;fillColor=#fff2cc;strokeColor=#d6b656;" parent="1" vertex="1">
          <mxGeometry x="585" y="310" width="120" height="30" as="geometry" />
        </mxCell>
        <mxCell id="9tO-GS4h1mKYMsfafJvD-125" value="not triggered" style="rounded=0;whiteSpace=wrap;html=1;fillColor=#fff2cc;strokeColor=#d6b656;" parent="1" vertex="1">
          <mxGeometry x="585" y="360" width="120" height="30" as="geometry" />
        </mxCell>
        <mxCell id="9tO-GS4h1mKYMsfafJvD-126" value="not triggered" style="rounded=0;whiteSpace=wrap;html=1;fillColor=#fff2cc;strokeColor=#d6b656;" parent="1" vertex="1">
          <mxGeometry x="585" y="460" width="120" height="30" as="geometry" />
        </mxCell>
        <mxCell id="9tO-GS4h1mKYMsfafJvD-127" value="not triggered" style="rounded=0;whiteSpace=wrap;html=1;fillColor=#fff2cc;strokeColor=#d6b656;" parent="1" vertex="1">
          <mxGeometry x="585" y="410" width="120" height="30" as="geometry" />
        </mxCell>
        <mxCell id="9tO-GS4h1mKYMsfafJvD-128" value="not triggered" style="rounded=0;whiteSpace=wrap;html=1;fillColor=#fff2cc;strokeColor=#d6b656;" parent="1" vertex="1">
          <mxGeometry x="585" y="510" width="120" height="30" as="geometry" />
        </mxCell>
        <mxCell id="9tO-GS4h1mKYMsfafJvD-129" value="not triggered" style="rounded=0;whiteSpace=wrap;html=1;fillColor=#fff2cc;strokeColor=#d6b656;" parent="1" vertex="1">
          <mxGeometry x="585" y="560" width="120" height="30" as="geometry" />
        </mxCell>
        <mxCell id="9tO-GS4h1mKYMsfafJvD-130" value="not triggered" style="rounded=0;whiteSpace=wrap;html=1;fillColor=#fff2cc;strokeColor=#d6b656;" parent="1" vertex="1">
          <mxGeometry x="585" y="610" width="120" height="30" as="geometry" />
        </mxCell>
        <mxCell id="9tO-GS4h1mKYMsfafJvD-131" value="not triggered" style="rounded=0;whiteSpace=wrap;html=1;fillColor=#fff2cc;strokeColor=#d6b656;" parent="1" vertex="1">
          <mxGeometry x="585" y="710" width="120" height="30" as="geometry" />
        </mxCell>
        <mxCell id="9tO-GS4h1mKYMsfafJvD-133" value="not triggered" style="rounded=0;whiteSpace=wrap;html=1;fillColor=#fff2cc;strokeColor=#d6b656;" parent="1" vertex="1">
          <mxGeometry x="585" y="760" width="120" height="30" as="geometry" />
        </mxCell>
        <mxCell id="9tO-GS4h1mKYMsfafJvD-134" value="not triggered" style="rounded=0;whiteSpace=wrap;html=1;fillColor=#fff2cc;strokeColor=#d6b656;" parent="1" vertex="1">
          <mxGeometry x="585" y="810" width="120" height="30" as="geometry" />
        </mxCell>
        <mxCell id="9tO-GS4h1mKYMsfafJvD-135" value="not triggered" style="rounded=0;whiteSpace=wrap;html=1;fillColor=#fff2cc;strokeColor=#d6b656;" parent="1" vertex="1">
          <mxGeometry x="585" y="860" width="120" height="30" as="geometry" />
        </mxCell>
        <mxCell id="9tO-GS4h1mKYMsfafJvD-136" value="not triggered" style="rounded=0;whiteSpace=wrap;html=1;fillColor=#fff2cc;strokeColor=#d6b656;" parent="1" vertex="1">
          <mxGeometry x="795" y="210" width="120" height="30" as="geometry" />
        </mxCell>
        <mxCell id="9tO-GS4h1mKYMsfafJvD-137" value="not triggered" style="rounded=0;whiteSpace=wrap;html=1;fillColor=#fff2cc;strokeColor=#d6b656;" parent="1" vertex="1">
          <mxGeometry x="795" y="160" width="120" height="30" as="geometry" />
        </mxCell>
        <mxCell id="9tO-GS4h1mKYMsfafJvD-138" value="not triggered" style="rounded=0;whiteSpace=wrap;html=1;fillColor=#fff2cc;strokeColor=#d6b656;" parent="1" vertex="1">
          <mxGeometry x="795" y="260" width="120" height="30" as="geometry" />
        </mxCell>
        <mxCell id="9tO-GS4h1mKYMsfafJvD-140" value="not triggered" style="rounded=0;whiteSpace=wrap;html=1;fillColor=#fff2cc;strokeColor=#d6b656;" parent="1" vertex="1">
          <mxGeometry x="795" y="360" width="120" height="30" as="geometry" />
        </mxCell>
        <mxCell id="9tO-GS4h1mKYMsfafJvD-141" value="not triggered" style="rounded=0;whiteSpace=wrap;html=1;fillColor=#fff2cc;strokeColor=#d6b656;" parent="1" vertex="1">
          <mxGeometry x="795" y="460" width="120" height="30" as="geometry" />
        </mxCell>
        <mxCell id="9tO-GS4h1mKYMsfafJvD-142" value="not triggered" style="rounded=0;whiteSpace=wrap;html=1;fillColor=#fff2cc;strokeColor=#d6b656;" parent="1" vertex="1">
          <mxGeometry x="795" y="410" width="120" height="30" as="geometry" />
        </mxCell>
        <mxCell id="9tO-GS4h1mKYMsfafJvD-144" value="not triggered" style="rounded=0;whiteSpace=wrap;html=1;fillColor=#fff2cc;strokeColor=#d6b656;" parent="1" vertex="1">
          <mxGeometry x="795" y="560" width="120" height="30" as="geometry" />
        </mxCell>
        <mxCell id="9tO-GS4h1mKYMsfafJvD-145" value="not triggered" style="rounded=0;whiteSpace=wrap;html=1;fillColor=#fff2cc;strokeColor=#d6b656;" parent="1" vertex="1">
          <mxGeometry x="795" y="610" width="120" height="30" as="geometry" />
        </mxCell>
        <mxCell id="9tO-GS4h1mKYMsfafJvD-146" value="not triggered" style="rounded=0;whiteSpace=wrap;html=1;fillColor=#fff2cc;strokeColor=#d6b656;" parent="1" vertex="1">
          <mxGeometry x="795" y="710" width="120" height="30" as="geometry" />
        </mxCell>
        <mxCell id="9tO-GS4h1mKYMsfafJvD-147" value="not triggered" style="rounded=0;whiteSpace=wrap;html=1;fillColor=#fff2cc;strokeColor=#d6b656;" parent="1" vertex="1">
          <mxGeometry x="795" y="660" width="120" height="30" as="geometry" />
        </mxCell>
        <mxCell id="9tO-GS4h1mKYMsfafJvD-148" value="not triggered" style="rounded=0;whiteSpace=wrap;html=1;fillColor=#fff2cc;strokeColor=#d6b656;" parent="1" vertex="1">
          <mxGeometry x="795" y="760" width="120" height="30" as="geometry" />
        </mxCell>
        <mxCell id="9tO-GS4h1mKYMsfafJvD-149" value="not triggered" style="rounded=0;whiteSpace=wrap;html=1;fillColor=#fff2cc;strokeColor=#d6b656;" parent="1" vertex="1">
          <mxGeometry x="795" y="810" width="120" height="30" as="geometry" />
        </mxCell>
        <mxCell id="9tO-GS4h1mKYMsfafJvD-150" value="not triggered" style="rounded=0;whiteSpace=wrap;html=1;fillColor=#fff2cc;strokeColor=#d6b656;" parent="1" vertex="1">
          <mxGeometry x="795" y="860" width="120" height="30" as="geometry" />
        </mxCell>
        <mxCell id="9tO-GS4h1mKYMsfafJvD-151" value="not triggered" style="rounded=0;whiteSpace=wrap;html=1;fillColor=#fff2cc;strokeColor=#d6b656;" parent="1" vertex="1">
          <mxGeometry x="1005" y="210" width="120" height="30" as="geometry" />
        </mxCell>
        <mxCell id="9tO-GS4h1mKYMsfafJvD-152" value="not triggered" style="rounded=0;whiteSpace=wrap;html=1;fillColor=#fff2cc;strokeColor=#d6b656;" parent="1" vertex="1">
          <mxGeometry x="1005" y="160" width="120" height="30" as="geometry" />
        </mxCell>
        <mxCell id="9tO-GS4h1mKYMsfafJvD-153" value="not triggered" style="rounded=0;whiteSpace=wrap;html=1;fillColor=#fff2cc;strokeColor=#d6b656;" parent="1" vertex="1">
          <mxGeometry x="1005" y="260" width="120" height="30" as="geometry" />
        </mxCell>
        <mxCell id="9tO-GS4h1mKYMsfafJvD-154" value="not triggered" style="rounded=0;whiteSpace=wrap;html=1;fillColor=#fff2cc;strokeColor=#d6b656;" parent="1" vertex="1">
          <mxGeometry x="1005" y="310" width="120" height="30" as="geometry" />
        </mxCell>
        <mxCell id="9tO-GS4h1mKYMsfafJvD-155" value="not triggered" style="rounded=0;whiteSpace=wrap;html=1;fillColor=#fff2cc;strokeColor=#d6b656;" parent="1" vertex="1">
          <mxGeometry x="1005" y="360" width="120" height="30" as="geometry" />
        </mxCell>
        <mxCell id="9tO-GS4h1mKYMsfafJvD-156" value="not triggered" style="rounded=0;whiteSpace=wrap;html=1;fillColor=#fff2cc;strokeColor=#d6b656;" parent="1" vertex="1">
          <mxGeometry x="1005" y="460" width="120" height="30" as="geometry" />
        </mxCell>
        <mxCell id="9tO-GS4h1mKYMsfafJvD-157" value="not triggered" style="rounded=0;whiteSpace=wrap;html=1;fillColor=#fff2cc;strokeColor=#d6b656;" parent="1" vertex="1">
          <mxGeometry x="1005" y="410" width="120" height="30" as="geometry" />
        </mxCell>
        <mxCell id="9tO-GS4h1mKYMsfafJvD-158" value="not triggered" style="rounded=0;whiteSpace=wrap;html=1;fillColor=#fff2cc;strokeColor=#d6b656;" parent="1" vertex="1">
          <mxGeometry x="1005" y="510" width="120" height="30" as="geometry" />
        </mxCell>
        <mxCell id="9tO-GS4h1mKYMsfafJvD-159" value="not triggered" style="rounded=0;whiteSpace=wrap;html=1;fillColor=#fff2cc;strokeColor=#d6b656;" parent="1" vertex="1">
          <mxGeometry x="1005" y="560" width="120" height="30" as="geometry" />
        </mxCell>
        <mxCell id="9tO-GS4h1mKYMsfafJvD-162" value="not triggered" style="rounded=0;whiteSpace=wrap;html=1;fillColor=#fff2cc;strokeColor=#d6b656;" parent="1" vertex="1">
          <mxGeometry x="1005" y="660" width="120" height="30" as="geometry" />
        </mxCell>
        <mxCell id="9tO-GS4h1mKYMsfafJvD-164" value="not triggered" style="rounded=0;whiteSpace=wrap;html=1;fillColor=#fff2cc;strokeColor=#d6b656;" parent="1" vertex="1">
          <mxGeometry x="1005" y="810" width="120" height="30" as="geometry" />
        </mxCell>
        <mxCell id="9tO-GS4h1mKYMsfafJvD-165" value="not triggered" style="rounded=0;whiteSpace=wrap;html=1;fillColor=#fff2cc;strokeColor=#d6b656;" parent="1" vertex="1">
          <mxGeometry x="1005" y="860" width="120" height="30" as="geometry" />
        </mxCell>
        <mxCell id="9tO-GS4h1mKYMsfafJvD-166" value="not triggered" style="rounded=0;whiteSpace=wrap;html=1;fillColor=#fff2cc;strokeColor=#d6b656;" parent="1" vertex="1">
          <mxGeometry x="1215" y="210" width="120" height="30" as="geometry" />
        </mxCell>
        <mxCell id="9tO-GS4h1mKYMsfafJvD-167" value="not triggered" style="rounded=0;whiteSpace=wrap;html=1;fillColor=#fff2cc;strokeColor=#d6b656;" parent="1" vertex="1">
          <mxGeometry x="1215" y="160" width="120" height="30" as="geometry" />
        </mxCell>
        <mxCell id="9tO-GS4h1mKYMsfafJvD-168" value="not triggered" style="rounded=0;whiteSpace=wrap;html=1;fillColor=#fff2cc;strokeColor=#d6b656;" parent="1" vertex="1">
          <mxGeometry x="1215" y="260" width="120" height="30" as="geometry" />
        </mxCell>
        <mxCell id="9tO-GS4h1mKYMsfafJvD-169" value="not triggered" style="rounded=0;whiteSpace=wrap;html=1;fillColor=#fff2cc;strokeColor=#d6b656;" parent="1" vertex="1">
          <mxGeometry x="1215" y="310" width="120" height="30" as="geometry" />
        </mxCell>
        <mxCell id="9tO-GS4h1mKYMsfafJvD-170" value="not triggered" style="rounded=0;whiteSpace=wrap;html=1;fillColor=#fff2cc;strokeColor=#d6b656;" parent="1" vertex="1">
          <mxGeometry x="1215" y="360" width="120" height="30" as="geometry" />
        </mxCell>
        <mxCell id="9tO-GS4h1mKYMsfafJvD-171" value="not triggered" style="rounded=0;whiteSpace=wrap;html=1;fillColor=#fff2cc;strokeColor=#d6b656;" parent="1" vertex="1">
          <mxGeometry x="1215" y="460" width="120" height="30" as="geometry" />
        </mxCell>
        <mxCell id="9tO-GS4h1mKYMsfafJvD-172" value="not triggered" style="rounded=0;whiteSpace=wrap;html=1;fillColor=#fff2cc;strokeColor=#d6b656;" parent="1" vertex="1">
          <mxGeometry x="1215" y="410" width="120" height="30" as="geometry" />
        </mxCell>
        <mxCell id="9tO-GS4h1mKYMsfafJvD-174" value="not triggered" style="rounded=0;whiteSpace=wrap;html=1;fillColor=#fff2cc;strokeColor=#d6b656;" parent="1" vertex="1">
          <mxGeometry x="1215" y="560" width="120" height="30" as="geometry" />
        </mxCell>
        <mxCell id="9tO-GS4h1mKYMsfafJvD-175" value="not triggered" style="rounded=0;whiteSpace=wrap;html=1;fillColor=#fff2cc;strokeColor=#d6b656;" parent="1" vertex="1">
          <mxGeometry x="1215" y="610" width="120" height="30" as="geometry" />
        </mxCell>
        <mxCell id="9tO-GS4h1mKYMsfafJvD-176" value="not triggered" style="rounded=0;whiteSpace=wrap;html=1;fillColor=#fff2cc;strokeColor=#d6b656;" parent="1" vertex="1">
          <mxGeometry x="1215" y="710" width="120" height="30" as="geometry" />
        </mxCell>
        <mxCell id="9tO-GS4h1mKYMsfafJvD-177" value="not triggered" style="rounded=0;whiteSpace=wrap;html=1;fillColor=#fff2cc;strokeColor=#d6b656;" parent="1" vertex="1">
          <mxGeometry x="1215" y="660" width="120" height="30" as="geometry" />
        </mxCell>
        <mxCell id="9tO-GS4h1mKYMsfafJvD-178" value="not triggered" style="rounded=0;whiteSpace=wrap;html=1;fillColor=#fff2cc;strokeColor=#d6b656;" parent="1" vertex="1">
          <mxGeometry x="1215" y="760" width="120" height="30" as="geometry" />
        </mxCell>
        <mxCell id="9tO-GS4h1mKYMsfafJvD-179" value="not triggered" style="rounded=0;whiteSpace=wrap;html=1;fillColor=#fff2cc;strokeColor=#d6b656;" parent="1" vertex="1">
          <mxGeometry x="1215" y="810" width="120" height="30" as="geometry" />
        </mxCell>
        <mxCell id="9tO-GS4h1mKYMsfafJvD-180" value="not triggered" style="rounded=0;whiteSpace=wrap;html=1;fillColor=#fff2cc;strokeColor=#d6b656;" parent="1" vertex="1">
          <mxGeometry x="1215" y="860" width="120" height="30" as="geometry" />
        </mxCell>
        <mxCell id="9tO-GS4h1mKYMsfafJvD-181" value="not triggered" style="rounded=0;whiteSpace=wrap;html=1;fillColor=#fff2cc;strokeColor=#d6b656;" parent="1" vertex="1">
          <mxGeometry x="1425" y="210" width="120" height="30" as="geometry" />
        </mxCell>
        <mxCell id="9tO-GS4h1mKYMsfafJvD-182" value="not triggered" style="rounded=0;whiteSpace=wrap;html=1;fillColor=#fff2cc;strokeColor=#d6b656;" parent="1" vertex="1">
          <mxGeometry x="1425" y="160" width="120" height="30" as="geometry" />
        </mxCell>
        <mxCell id="9tO-GS4h1mKYMsfafJvD-183" value="not triggered" style="rounded=0;whiteSpace=wrap;html=1;fillColor=#fff2cc;strokeColor=#d6b656;" parent="1" vertex="1">
          <mxGeometry x="1425" y="260" width="120" height="30" as="geometry" />
        </mxCell>
        <mxCell id="9tO-GS4h1mKYMsfafJvD-184" value="not triggered" style="rounded=0;whiteSpace=wrap;html=1;fillColor=#fff2cc;strokeColor=#d6b656;" parent="1" vertex="1">
          <mxGeometry x="1425" y="310" width="120" height="30" as="geometry" />
        </mxCell>
        <mxCell id="9tO-GS4h1mKYMsfafJvD-185" value="not triggered" style="rounded=0;whiteSpace=wrap;html=1;fillColor=#fff2cc;strokeColor=#d6b656;" parent="1" vertex="1">
          <mxGeometry x="1425" y="360" width="120" height="30" as="geometry" />
        </mxCell>
        <mxCell id="9tO-GS4h1mKYMsfafJvD-186" value="not triggered" style="rounded=0;whiteSpace=wrap;html=1;fillColor=#fff2cc;strokeColor=#d6b656;" parent="1" vertex="1">
          <mxGeometry x="1425" y="460" width="120" height="30" as="geometry" />
        </mxCell>
        <mxCell id="9tO-GS4h1mKYMsfafJvD-187" value="not triggered" style="rounded=0;whiteSpace=wrap;html=1;fillColor=#fff2cc;strokeColor=#d6b656;" parent="1" vertex="1">
          <mxGeometry x="1425" y="410" width="120" height="30" as="geometry" />
        </mxCell>
        <mxCell id="9tO-GS4h1mKYMsfafJvD-188" value="not triggered" style="rounded=0;whiteSpace=wrap;html=1;fillColor=#fff2cc;strokeColor=#d6b656;" parent="1" vertex="1">
          <mxGeometry x="1425" y="510" width="120" height="30" as="geometry" />
        </mxCell>
        <mxCell id="9tO-GS4h1mKYMsfafJvD-189" value="not triggered" style="rounded=0;whiteSpace=wrap;html=1;fillColor=#fff2cc;strokeColor=#d6b656;" parent="1" vertex="1">
          <mxGeometry x="1425" y="560" width="120" height="30" as="geometry" />
        </mxCell>
        <mxCell id="9tO-GS4h1mKYMsfafJvD-190" value="not triggered" style="rounded=0;whiteSpace=wrap;html=1;fillColor=#fff2cc;strokeColor=#d6b656;" parent="1" vertex="1">
          <mxGeometry x="1425" y="610" width="120" height="30" as="geometry" />
        </mxCell>
        <mxCell id="9tO-GS4h1mKYMsfafJvD-192" value="not triggered" style="rounded=0;whiteSpace=wrap;html=1;fillColor=#fff2cc;strokeColor=#d6b656;" parent="1" vertex="1">
          <mxGeometry x="1425" y="660" width="120" height="30" as="geometry" />
        </mxCell>
        <mxCell id="9tO-GS4h1mKYMsfafJvD-193" value="not triggered" style="rounded=0;whiteSpace=wrap;html=1;fillColor=#fff2cc;strokeColor=#d6b656;" parent="1" vertex="1">
          <mxGeometry x="1425" y="760" width="120" height="30" as="geometry" />
        </mxCell>
        <mxCell id="9tO-GS4h1mKYMsfafJvD-194" value="not triggered" style="rounded=0;whiteSpace=wrap;html=1;fillColor=#fff2cc;strokeColor=#d6b656;" parent="1" vertex="1">
          <mxGeometry x="1425" y="810" width="120" height="30" as="geometry" />
        </mxCell>
        <mxCell id="9tO-GS4h1mKYMsfafJvD-196" value="&lt;font style=&quot;font-size: 20px;&quot;&gt;Each Operation Result&lt;/font&gt;" style="text;html=1;strokeColor=none;fillColor=none;align=center;verticalAlign=middle;whiteSpace=wrap;rounded=0;" parent="1" vertex="1">
          <mxGeometry x="192.5" y="1020" width="260" height="60" as="geometry" />
        </mxCell>
        <mxCell id="zpdO9AZwKdfdM45BC2kk-1" value="triggered" style="rounded=0;whiteSpace=wrap;html=1;fillColor=#a20025;fontColor=#ffffff;strokeColor=#6F0000;" parent="1" vertex="1">
          <mxGeometry x="585" y="260" width="120" height="30" as="geometry" />
        </mxCell>
        <mxCell id="zpdO9AZwKdfdM45BC2kk-2" value="triggered" style="rounded=0;whiteSpace=wrap;html=1;fillColor=#a20025;fontColor=#ffffff;strokeColor=#6F0000;" parent="1" vertex="1">
          <mxGeometry x="585" y="660" width="120" height="30" as="geometry" />
        </mxCell>
        <mxCell id="zpdO9AZwKdfdM45BC2kk-3" value="YES" style="rounded=0;whiteSpace=wrap;html=1;" parent="1" vertex="1">
          <mxGeometry x="580" y="1035" width="130" height="30" as="geometry" />
        </mxCell>
        <mxCell id="zpdO9AZwKdfdM45BC2kk-4" value="triggered" style="rounded=0;whiteSpace=wrap;html=1;fillColor=#a20025;fontColor=#ffffff;strokeColor=#6F0000;" parent="1" vertex="1">
          <mxGeometry x="795" y="310" width="120" height="30" as="geometry" />
        </mxCell>
        <mxCell id="zpdO9AZwKdfdM45BC2kk-5" value="triggered" style="rounded=0;whiteSpace=wrap;html=1;fillColor=#a20025;fontColor=#ffffff;strokeColor=#6F0000;" parent="1" vertex="1">
          <mxGeometry x="795" y="510" width="120" height="30" as="geometry" />
        </mxCell>
        <mxCell id="zpdO9AZwKdfdM45BC2kk-6" value="YES" style="rounded=0;whiteSpace=wrap;html=1;" parent="1" vertex="1">
          <mxGeometry x="790" y="1035" width="130" height="30" as="geometry" />
        </mxCell>
        <mxCell id="zpdO9AZwKdfdM45BC2kk-7" value="triggered" style="rounded=0;whiteSpace=wrap;html=1;fillColor=#a20025;fontColor=#ffffff;strokeColor=#6F0000;" parent="1" vertex="1">
          <mxGeometry x="1005" y="610" width="120" height="30" as="geometry" />
        </mxCell>
        <mxCell id="zpdO9AZwKdfdM45BC2kk-8" value="triggered" style="rounded=0;whiteSpace=wrap;html=1;fillColor=#a20025;fontColor=#ffffff;strokeColor=#6F0000;" parent="1" vertex="1">
          <mxGeometry x="1005" y="710" width="120" height="30" as="geometry" />
        </mxCell>
        <mxCell id="zpdO9AZwKdfdM45BC2kk-9" value="triggered" style="rounded=0;whiteSpace=wrap;html=1;fillColor=#a20025;fontColor=#ffffff;strokeColor=#6F0000;" parent="1" vertex="1">
          <mxGeometry x="1005" y="760" width="120" height="30" as="geometry" />
        </mxCell>
        <mxCell id="zpdO9AZwKdfdM45BC2kk-10" value="YES" style="rounded=0;whiteSpace=wrap;html=1;" parent="1" vertex="1">
          <mxGeometry x="1000" y="1035" width="130" height="30" as="geometry" />
        </mxCell>
        <mxCell id="zpdO9AZwKdfdM45BC2kk-11" value="triggered" style="rounded=0;whiteSpace=wrap;html=1;fillColor=#a20025;fontColor=#ffffff;strokeColor=#6F0000;" parent="1" vertex="1">
          <mxGeometry x="1215" y="510" width="120" height="30" as="geometry" />
        </mxCell>
        <mxCell id="zpdO9AZwKdfdM45BC2kk-12" value="VOTING_NEEDED" style="rounded=0;whiteSpace=wrap;html=1;" parent="1" vertex="1">
          <mxGeometry x="1210" y="1035" width="130" height="30" as="geometry" />
        </mxCell>
        <mxCell id="zpdO9AZwKdfdM45BC2kk-13" value="triggered" style="rounded=0;whiteSpace=wrap;html=1;fillColor=#a20025;fontColor=#ffffff;strokeColor=#6F0000;" parent="1" vertex="1">
          <mxGeometry x="1425" y="860" width="120" height="30" as="geometry" />
        </mxCell>
        <mxCell id="zpdO9AZwKdfdM45BC2kk-14" value="triggered" style="rounded=0;whiteSpace=wrap;html=1;fillColor=#a20025;fontColor=#ffffff;strokeColor=#6F0000;" parent="1" vertex="1">
          <mxGeometry x="1425" y="710" width="120" height="30" as="geometry" />
        </mxCell>
        <mxCell id="zpdO9AZwKdfdM45BC2kk-15" value="NO" style="rounded=0;whiteSpace=wrap;html=1;" parent="1" vertex="1">
          <mxGeometry x="1420" y="1035" width="130" height="30" as="geometry" />
        </mxCell>
        <mxCell id="zpdO9AZwKdfdM45BC2kk-16" value="&lt;font style=&quot;font-size: 20px;&quot;&gt;Highest Level&lt;/font&gt;" style="text;html=1;strokeColor=none;fillColor=none;align=center;verticalAlign=middle;whiteSpace=wrap;rounded=0;" parent="1" vertex="1">
          <mxGeometry x="192.5" y="1080" width="260" height="60" as="geometry" />
        </mxCell>
        <mxCell id="zpdO9AZwKdfdM45BC2kk-17" value="4" style="rounded=0;whiteSpace=wrap;html=1;" parent="1" vertex="1">
          <mxGeometry x="580" y="1095" width="130" height="30" as="geometry" />
        </mxCell>
        <mxCell id="zpdO9AZwKdfdM45BC2kk-18" value="2" style="rounded=0;whiteSpace=wrap;html=1;" parent="1" vertex="1">
          <mxGeometry x="790" y="1095" width="130" height="30" as="geometry" />
        </mxCell>
        <mxCell id="zpdO9AZwKdfdM45BC2kk-19" value="4" style="rounded=0;whiteSpace=wrap;html=1;" parent="1" vertex="1">
          <mxGeometry x="1000" y="1095" width="130" height="30" as="geometry" />
        </mxCell>
        <mxCell id="zpdO9AZwKdfdM45BC2kk-20" value="5" style="rounded=0;whiteSpace=wrap;html=1;" parent="1" vertex="1">
          <mxGeometry x="1210" y="1095" width="130" height="30" as="geometry" />
        </mxCell>
        <mxCell id="zpdO9AZwKdfdM45BC2kk-21" value="3" style="rounded=0;whiteSpace=wrap;html=1;" parent="1" vertex="1">
          <mxGeometry x="1420" y="1095" width="130" height="30" as="geometry" />
        </mxCell>
        <mxCell id="CZfQ6NluT0irD70Na4tE-1" value="not triggered" style="rounded=0;whiteSpace=wrap;html=1;fillColor=#fff2cc;strokeColor=#d6b656;" vertex="1" parent="1">
          <mxGeometry x="585" y="260" width="120" height="30" as="geometry" />
        </mxCell>
        <mxCell id="CZfQ6NluT0irD70Na4tE-2" value="triggered" style="rounded=0;whiteSpace=wrap;html=1;fillColor=#a20025;fontColor=#ffffff;strokeColor=#6F0000;" vertex="1" parent="1">
          <mxGeometry x="585" y="410" width="120" height="30" as="geometry" />
        </mxCell>
        <mxCell id="CZfQ6NluT0irD70Na4tE-3" value="triggered" style="rounded=0;whiteSpace=wrap;html=1;fillColor=#a20025;fontColor=#ffffff;strokeColor=#6F0000;" vertex="1" parent="1">
          <mxGeometry x="585" y="810" width="120" height="30" as="geometry" />
        </mxCell>
        <mxCell id="CZfQ6NluT0irD70Na4tE-4" value="triggered" style="rounded=0;whiteSpace=wrap;html=1;fillColor=#a20025;fontColor=#ffffff;strokeColor=#6F0000;" vertex="1" parent="1">
          <mxGeometry x="585" y="860" width="120" height="30" as="geometry" />
        </mxCell>
        <mxCell id="CZfQ6NluT0irD70Na4tE-5" value="not triggered" style="rounded=0;whiteSpace=wrap;html=1;fillColor=#fff2cc;strokeColor=#d6b656;" vertex="1" parent="1">
          <mxGeometry x="585" y="660" width="120" height="30" as="geometry" />
        </mxCell>
        <mxCell id="CZfQ6NluT0irD70Na4tE-6" value="not triggered" style="rounded=0;whiteSpace=wrap;html=1;fillColor=#fff2cc;strokeColor=#d6b656;" vertex="1" parent="1">
          <mxGeometry x="795" y="510" width="120" height="30" as="geometry" />
        </mxCell>
        <mxCell id="CZfQ6NluT0irD70Na4tE-7" value="triggered" style="rounded=0;whiteSpace=wrap;html=1;fillColor=#a20025;fontColor=#ffffff;strokeColor=#6F0000;" vertex="1" parent="1">
          <mxGeometry x="1005" y="160" width="120" height="30" as="geometry" />
        </mxCell>
        <mxCell id="CZfQ6NluT0irD70Na4tE-8" value="not triggered" style="rounded=0;whiteSpace=wrap;html=1;fillColor=#fff2cc;strokeColor=#d6b656;" vertex="1" parent="1">
          <mxGeometry x="1005" y="710" width="120" height="30" as="geometry" />
        </mxCell>
        <mxCell id="CZfQ6NluT0irD70Na4tE-9" value="not triggered" style="rounded=0;whiteSpace=wrap;html=1;fillColor=#fff2cc;strokeColor=#d6b656;" vertex="1" parent="1">
          <mxGeometry x="1005" y="760" width="120" height="30" as="geometry" />
        </mxCell>
        <mxCell id="CZfQ6NluT0irD70Na4tE-10" value="triggered" style="rounded=0;whiteSpace=wrap;html=1;fillColor=#a20025;fontColor=#ffffff;strokeColor=#6F0000;" vertex="1" parent="1">
          <mxGeometry x="1425" y="410" width="120" height="30" as="geometry" />
        </mxCell>
        <mxCell id="CZfQ6NluT0irD70Na4tE-11" value="not triggered" style="rounded=0;whiteSpace=wrap;html=1;fillColor=#fff2cc;strokeColor=#d6b656;" vertex="1" parent="1">
          <mxGeometry x="1425" y="860" width="120" height="30" as="geometry" />
        </mxCell>
        <mxCell id="CZfQ6NluT0irD70Na4tE-12" value="triggered" style="rounded=0;whiteSpace=wrap;html=1;fillColor=#a20025;fontColor=#ffffff;strokeColor=#6F0000;" vertex="1" parent="1">
          <mxGeometry x="1215" y="360" width="120" height="30" as="geometry" />
        </mxCell>
      </root>
    </mxGraphModel>
  </diagram>
</mxfile>
